<svg width="949" height="832" viewBox="0 0 949 832" fill="none" xmlns="http://www.w3.org/2000/svg">
<path d="M720.5 485.5C720.5 582.754 686.745 658.823 629.731 710.694C572.543 762.723 490.531 791.684 391.927 791.684C293.198 791.684 198.533 762.631 128.915 709.837C59.5945 657.269 15 581.2 15 485.5C15 297.105 206.531 29.9467 529.226 15.603C503.274 62.4038 498.166 103.94 507.681 142.41C518.523 186.246 547.85 223.632 579.619 258.364C589.658 269.338 599.892 280.011 610.058 290.613C632.977 314.513 655.55 338.053 674.752 363.877C701.972 400.481 720.5 439.428 720.5 485.5Z" fill="#FE8A8A" stroke="#FF0000" stroke-width="30"/>
<path d="M454.5 388.5C454.5 396.508 447.784 403 439.5 403C431.216 403 424.5 396.508 424.5 388.5C424.5 380.492 431.216 374 439.5 374C447.784 374 454.5 380.492 454.5 388.5Z" fill="#6E8958"/>
<path d="M454.5 388.5C454.5 396.508 447.784 403 439.5 403C431.216 403 424.5 396.508 424.5 388.5C424.5 380.492 431.216 374 439.5 374C447.784 374 454.5 380.492 454.5 388.5Z" fill="#657D52"/>
<path d="M454.5 388.5C454.5 396.508 447.784 403 439.5 403C431.216 403 424.5 396.508 424.5 388.5C424.5 380.492 431.216 374 439.5 374C447.784 374 454.5 380.492 454.5 388.5Z" fill="#6E8958"/>
<path d="M454.5 388.5C454.5 396.508 447.784 403 439.5 403C431.216 403 424.5 396.508 424.5 388.5C424.5 380.492 431.216 374 439.5 374C447.784 374 454.5 380.492 454.5 388.5Z" fill="white"/>
<path d="M301.5 387.5C301.5 395.508 294.56 402 286 402C277.44 402 270.5 395.508 270.5 387.5C270.5 379.492 277.44 373 286 373C294.56 373 301.5 379.492 301.5 387.5Z" fill="#6E8958"/>
<path d="M301.5 387.5C301.5 395.508 294.56 402 286 402C277.44 402 270.5 395.508 270.5 387.5C270.5 379.492 277.44 373 286 373C294.56 373 301.5 379.492 301.5 387.5Z" fill="#657D52"/>
<path d="M301.5 387.5C301.5 395.508 294.56 402 286 402C277.44 402 270.5 395.508 270.5 387.5C270.5 379.492 277.44 373 286 373C294.56 373 301.5 379.492 301.5 387.5Z" fill="#6E8958"/>
<path d="M301.5 387.5C301.5 395.508 294.56 402 286 402C277.44 402 270.5 395.508 270.5 387.5C270.5 379.492 277.44 373 286 373C294.56 373 301.5 379.492 301.5 387.5Z" fill="white"/>
<path d="M258 456C291.5 508.5 425 528.5 478 456" stroke="white" stroke-width="20" stroke-linecap="round"/>
<path d="M927.5 533.307C927.5 556.289 905.345 576.807 875.5 576.807C845.655 576.807 823.5 556.289 823.5 533.307C823.5 510.326 845.655 489.807 875.5 489.807C905.345 489.807 927.5 510.326 927.5 533.307Z" fill="#6E8958" stroke="#92B874" stroke-width="15"/>
<path d="M941 700.807C941 712.395 934.95 724.711 925.006 733.587C915.134 742.398 902.119 747.21 888.77 744.916C860.867 740.12 843.5 714.851 843.5 689.807C843.5 683.555 844.539 679.191 846.116 676.081C847.638 673.077 849.869 670.823 853.06 669.056C859.954 665.239 871.019 663.807 887.5 663.807C902.8 663.807 916.478 667.627 926.095 674.19C935.527 680.627 941 689.585 941 700.807Z" fill="#6E8958"/>
<path d="M941 700.807C941 712.395 934.95 724.711 925.006 733.587C915.134 742.398 902.119 747.21 888.77 744.916C860.867 740.12 843.5 714.851 843.5 689.807C843.5 683.555 844.539 679.191 846.116 676.081C847.638 673.077 849.869 670.823 853.06 669.056C859.954 665.239 871.019 663.807 887.5 663.807C902.8 663.807 916.478 667.627 926.095 674.19C935.527 680.627 941 689.585 941 700.807Z" fill="#657D52"/>
<path d="M941 700.807C941 712.395 934.95 724.711 925.006 733.587C915.134 742.398 902.119 747.21 888.77 744.916C860.867 740.12 843.5 714.851 843.5 689.807C843.5 683.555 844.539 679.191 846.116 676.081C847.638 673.077 849.869 670.823 853.06 669.056C859.954 665.239 871.019 663.807 887.5 663.807C902.8 663.807 916.478 667.627 926.095 674.19C935.527 680.627 941 689.585 941 700.807Z" fill="#6E8958"/>
<path d="M941 700.807C941 712.395 934.95 724.711 925.006 733.587C915.134 742.398 902.119 747.21 888.77 744.916C860.867 740.12 843.5 714.851 843.5 689.807C843.5 683.555 844.539 679.191 846.116 676.081C847.638 673.077 849.869 670.823 853.06 669.056C859.954 665.239 871.019 663.807 887.5 663.807C902.8 663.807 916.478 667.627 926.095 674.19C935.527 680.627 941 689.585 941 700.807Z" fill="#6E8958"/>
<path d="M941 700.807C941 712.395 934.95 724.711 925.006 733.587C915.134 742.398 902.119 747.21 888.77 744.916C860.867 740.12 843.5 714.851 843.5 689.807C843.5 683.555 844.539 679.191 846.116 676.081C847.638 673.077 849.869 670.823 853.06 669.056C859.954 665.239 871.019 663.807 887.5 663.807C902.8 663.807 916.478 667.627 926.095 674.19C935.527 680.627 941 689.585 941 700.807Z" stroke="#92B874" stroke-width="15"/>
<path d="M940.5 617.397C940.5 641.73 917.847 666.417 882.402 661.071C863.198 658.175 851.75 652.84 845.05 646.015C838.547 639.392 835.5 630.313 835.5 617.397C835.5 593.617 855.698 573.807 881.284 573.807C894.325 573.807 909.517 578.764 921.363 587.093C933.294 595.482 940.5 606.261 940.5 617.397Z" fill="#6E8958"/>
<path d="M940.5 617.397C940.5 641.73 917.847 666.417 882.402 661.071C863.198 658.175 851.75 652.84 845.05 646.015C838.547 639.392 835.5 630.313 835.5 617.397C835.5 593.617 855.698 573.807 881.284 573.807C894.325 573.807 909.517 578.764 921.363 587.093C933.294 595.482 940.5 606.261 940.5 617.397Z" fill="#657D52"/>
<path d="M940.5 617.397C940.5 641.73 917.847 666.417 882.402 661.071C863.198 658.175 851.75 652.84 845.05 646.015C838.547 639.392 835.5 630.313 835.5 617.397C835.5 593.617 855.698 573.807 881.284 573.807C894.325 573.807 909.517 578.764 921.363 587.093C933.294 595.482 940.5 606.261 940.5 617.397Z" fill="#6E8958"/>
<path d="M940.5 617.397C940.5 641.73 917.847 666.417 882.402 661.071C863.198 658.175 851.75 652.84 845.05 646.015C838.547 639.392 835.5 630.313 835.5 617.397C835.5 593.617 855.698 573.807 881.284 573.807C894.325 573.807 909.517 578.764 921.363 587.093C933.294 595.482 940.5 606.261 940.5 617.397Z" fill="#6E8958"/>
<path d="M940.5 617.397C940.5 641.73 917.847 666.417 882.402 661.071C863.198 658.175 851.75 652.84 845.05 646.015C838.547 639.392 835.5 630.313 835.5 617.397C835.5 593.617 855.698 573.807 881.284 573.807C894.325 573.807 909.517 578.764 921.363 587.093C933.294 595.482 940.5 606.261 940.5 617.397Z" stroke="#92B874" stroke-width="15"/>
<path d="M799.248 410.394L802.48 417.209L809.276 413.939C839.854 399.23 860.048 390.377 872.924 386.482C879.484 384.498 883.218 384.104 885.118 384.322C885.203 384.332 885.28 384.342 885.349 384.353C885.493 385.335 885.475 387.461 884.612 391.406C883.641 395.839 881.883 401.429 879.516 408.35C878.454 411.453 877.281 414.792 876.03 418.353C871.787 430.43 866.649 445.056 861.943 461.656C856.017 482.561 849.842 493.432 844.197 498.668C841.519 501.151 839.007 502.324 836.604 502.799C834.129 503.288 831.294 503.13 827.903 502.236C820.884 500.386 813.146 495.92 803.66 490.446L803.229 490.197C793.994 484.868 783.375 478.803 772.046 475.591C771.593 475.463 771.144 475.336 770.697 475.209C760.837 472.416 752.154 469.956 744.781 467.14C737.026 464.178 731.553 461.117 728.074 457.596C724.886 454.37 723.12 450.522 723.229 444.909C723.346 438.907 725.631 430.614 731.574 419.056C740.032 402.608 746.672 388.495 751.985 377.202C754.272 372.34 756.314 368.001 758.149 364.223C761.264 357.809 763.707 353.169 765.784 350.025C766.531 348.895 767.129 348.121 767.575 347.599C769.099 349.286 771.152 352.384 773.939 357.543C777.989 365.04 782.883 375.505 789.366 389.369C792.309 395.664 795.58 402.658 799.248 410.394ZM885.834 384.47C885.834 384.47 885.832 384.468 885.826 384.466C885.832 384.468 885.834 384.469 885.834 384.47ZM766.468 346.55C766.468 346.55 766.475 346.554 766.489 346.563C766.475 346.555 766.468 346.551 766.468 346.55Z" fill="#EFE26A" stroke="#92B874" stroke-width="15"/>
<path d="M565.016 535.465L568.144 535.881L570.629 533.936C573.545 531.653 576.45 527.696 579.131 523.845C580.437 521.969 582.056 519.562 583.8 516.971C585.56 514.356 587.446 511.552 589.265 508.916C597.085 497.581 607.22 483.983 620.559 471.28C647.029 446.072 686.266 424.189 745.62 431.747C803.861 439.164 845.401 472.366 869.557 516.714C893.806 561.235 900.507 617.024 888.425 668.86C876.362 720.616 845.689 768.005 795.645 796.302C745.64 824.578 675.321 834.331 582.968 808.918C538.194 796.597 495.165 773.641 466.523 742.218C438.095 711.03 423.847 671.617 435.681 625.084C446.131 583.995 465.013 560.181 487.333 547.287C509.842 534.283 536.976 531.731 565.016 535.465Z" fill="#FFFDED" stroke="#8FD15A" stroke-width="15"/>
<path d="M726 593.807C726 601.816 719.284 608.307 711 608.307C702.716 608.307 696 601.816 696 593.807C696 585.799 702.716 579.307 711 579.307C719.284 579.307 726 585.799 726 593.807Z" fill="#6E8958"/>
<path d="M726 593.807C726 601.816 719.284 608.307 711 608.307C702.716 608.307 696 601.816 696 593.807C696 585.799 702.716 579.307 711 579.307C719.284 579.307 726 585.799 726 593.807Z" fill="#657D52"/>
<path d="M726 593.807C726 601.816 719.284 608.307 711 608.307C702.716 608.307 696 601.816 696 593.807C696 585.799 702.716 579.307 711 579.307C719.284 579.307 726 585.799 726 593.807Z" fill="#6E8958"/>
<path d="M726 593.807C726 601.816 719.284 608.307 711 608.307C702.716 608.307 696 601.816 696 593.807C696 585.799 702.716 579.307 711 579.307C719.284 579.307 726 585.799 726 593.807Z" fill="#6E8958"/>
<path d="M595 575.807C595 583.816 588.06 590.307 579.5 590.307C570.94 590.307 564 583.816 564 575.807C564 567.799 570.94 561.307 579.5 561.307C588.06 561.307 595 567.799 595 575.807Z" fill="#6E8958"/>
<path d="M595 575.807C595 583.816 588.06 590.307 579.5 590.307C570.94 590.307 564 583.816 564 575.807C564 567.799 570.94 561.307 579.5 561.307C588.06 561.307 595 567.799 595 575.807Z" fill="#657D52"/>
<path d="M595 575.807C595 583.816 588.06 590.307 579.5 590.307C570.94 590.307 564 583.816 564 575.807C564 567.799 570.94 561.307 579.5 561.307C588.06 561.307 595 567.799 595 575.807Z" fill="#6E8958"/>
<path d="M595 575.807C595 583.816 588.06 590.307 579.5 590.307C570.94 590.307 564 583.816 564 575.807C564 567.799 570.94 561.307 579.5 561.307C588.06 561.307 595 567.799 595 575.807Z" fill="#6E8958"/>
<path d="M581.377 614.795C580.01 635.749 674.196 677.232 698.051 631.704" stroke="#6E8958" stroke-width="15" stroke-linecap="round"/>
</svg>
